<?xml version="1.0" standalone="no"?>
<!DOCTYPE svg PUBLIC "-//W3C//DTD SVG 20010904//EN"
 "http://www.w3.org/TR/2001/REC-SVG-20010904/DTD/svg10.dtd">
<svg version="1.0" xmlns="http://www.w3.org/2000/svg"
 width="781.000000pt" height="1011.000000pt" viewBox="0 0 781.000000 1011.000000"
 preserveAspectRatio="xMidYMid meet">

<g transform="translate(0.000000,1011.000000) scale(0.100000,-0.100000)"
fill="#000000" stroke="none">
<path d="M1192 9643 l-2 -473 -597 0 c-328 0 -594 -2 -592 -5 3 -2 272 -5 597
-5 l592 -1 0 -154 0 -155 -597 -3 -598 -2 598 -3 597 -2 0 -155 0 -154 -592
-1 c-325 0 -594 -3 -597 -5 -2 -3 264 -5 592 -5 l597 0 0 -150 0 -150 -597 -3
-598 -2 598 -3 597 -2 0 -155 0 -155 -597 -3 -598 -2 598 -3 597 -2 0 -310 0
-310 -597 -3 -598 -2 598 -3 597 -2 0 -155 0 -154 -592 -1 c-325 0 -594 -3
-597 -5 -2 -3 264 -5 592 -5 l597 0 0 -150 0 -150 -597 0 c-328 0 -594 -2
-592 -5 3 -2 272 -5 597 -5 l592 -1 0 -154 0 -155 -597 -3 -598 -2 598 -3 597
-2 0 -155 0 -154 -592 -1 c-325 0 -594 -3 -597 -5 -2 -3 264 -5 592 -5 l597 0
0 -150 0 -150 -597 -3 -598 -2 598 -3 597 -2 0 -155 0 -155 -597 -3 -598 -2
598 -3 597 -2 0 -310 0 -310 -597 -3 -598 -2 598 -3 597 -2 0 -155 0 -154
-592 -1 c-325 0 -594 -3 -597 -5 -2 -3 264 -5 592 -5 l597 0 0 -150 0 -150
-597 0 c-328 0 -594 -2 -592 -5 3 -2 272 -5 597 -5 l592 -1 0 -154 0 -155
-597 -3 -598 -2 598 -3 597 -2 0 -155 0 -154 -592 -1 c-325 0 -594 -3 -597 -5
-2 -3 264 -5 592 -5 l597 0 0 -150 0 -150 -597 -3 -598 -2 598 -3 597 -2 0
-155 0 -155 -597 -3 -598 -2 598 -3 597 -2 0 -310 0 -310 -597 -3 -598 -2 598
-3 597 -2 0 -155 0 -154 -592 -1 c-325 0 -594 -3 -597 -5 -2 -3 264 -5 592 -5
l597 0 0 -150 0 -150 -597 0 c-328 0 -594 -2 -592 -5 3 -2 272 -5 597 -5 l592
-1 0 -154 0 -155 -597 -3 -598 -2 598 -3 597 -2 0 -155 0 -154 -592 -1 c-325
0 -594 -3 -597 -5 -2 -3 264 -5 592 -5 l597 0 0 -150 0 -150 -597 -3 -598 -2
598 -3 597 -2 0 -155 0 -155 -597 -3 -598 -2 597 -3 597 -2 4 -152 3 -153 2
152 2 153 3308 3 3307 2 -3307 3 -3308 2 0 155 0 155 3308 3 3307 2 -3307 3
-3308 2 0 150 0 150 3308 3 3307 2 -3307 3 -3308 2 0 155 0 155 3308 3 3307 2
-3307 3 -3308 2 0 155 0 155 3308 3 3307 2 -3307 3 -3308 2 0 150 0 150 3308
3 3307 2 -3307 3 -3308 2 0 155 0 155 3308 3 3307 2 -3307 3 -3308 2 0 310 0
310 3308 3 3307 2 -3307 3 -3308 2 0 155 0 155 3308 3 3307 2 -3307 3 -3308 2
0 150 0 150 3308 3 3307 2 -3307 3 -3308 2 0 155 0 155 3308 3 3307 2 -3307 3
-3308 2 0 155 0 155 3308 3 3307 2 -3307 3 -3308 2 0 150 0 150 3308 3 3307 2
-3307 3 -3308 2 0 155 0 155 3308 3 3307 2 -3307 3 -3308 2 0 310 0 310 3308
3 3307 2 -3307 3 -3308 2 0 155 0 155 3308 3 3307 2 -3307 3 -3308 2 0 150 0
150 3308 3 3307 2 -3307 3 -3308 2 0 155 0 155 3308 3 3307 2 -3307 3 -3308 2
0 155 0 155 3308 3 3307 2 -3307 3 -3308 2 0 150 0 150 3308 3 3307 2 -3307 3
-3308 2 0 155 0 155 3308 3 3307 2 -3307 3 -3308 2 0 310 0 310 3308 3 3307 2
-3307 3 -3308 2 0 155 0 155 3308 3 3307 2 -3307 3 -3308 2 0 150 0 150 3308
3 3307 2 -3307 3 -3308 2 0 155 0 155 3308 3 3307 2 -3307 3 -3308 2 0 155 0
155 3308 3 3307 2 -3307 3 -3308 2 -3 473 -2 472 -3 -472z"/>
<path d="M7152 10045 c0 -22 3 -30 5 -17 2 12 8 22 13 22 5 0 11 -10 13 -22 4
-20 4 -19 6 5 1 17 -4 27 -13 27 -8 0 -17 6 -19 13 -3 6 -5 -6 -5 -28z"/>
<path d="M7311 10048 c-1 -31 3 -38 18 -38 20 0 31 17 24 38 -3 6 -11 12 -18
12 -7 0 -16 6 -18 13 -3 6 -6 -5 -6 -25z m31 -13 c0 -5 -5 -11 -11 -13 -6 -2
-11 4 -11 13 0 9 5 15 11 13 6 -2 11 -8 11 -13z"/>
<path d="M7373 10045 c0 -22 2 -30 4 -17 2 12 2 30 0 40 -3 9 -5 -1 -4 -23z"/>
<path d="M7108 10064 c-11 -11 5 -54 21 -54 13 0 13 2 2 9 -8 5 -11 16 -8 25
6 15 -5 30 -15 20z"/>
<path d="M7208 10064 c-11 -11 5 -54 21 -54 13 0 13 2 2 9 -8 5 -11 16 -8 25
6 15 -5 30 -15 20z"/>
<path d="M6547 10042 c3 -12 9 -25 14 -28 14 -8 11 10 -6 32 -13 18 -14 18 -8
-4z"/>
<path d="M6570 10053 c0 -5 7 -16 14 -26 14 -18 14 -17 21 2 7 24 25 28 25 7
0 -8 5 -18 10 -21 15 -9 12 9 -5 31 -15 19 -15 19 -30 0 -13 -17 -15 -18 -15
-3 0 9 -4 17 -10 17 -5 0 -10 -3 -10 -7z"/>
<path d="M6650 10053 c0 -5 7 -16 14 -26 14 -18 14 -17 21 2 7 24 25 28 25 7
0 -8 5 -18 10 -21 15 -9 12 9 -5 31 -15 19 -15 19 -30 0 -13 -17 -15 -18 -15
-3 0 9 -4 17 -10 17 -5 0 -10 -3 -10 -7z"/>
<path d="M6731 10055 c0 -5 6 -18 13 -27 12 -16 14 -15 25 10 10 23 9 24 -2
10 -12 -15 -14 -15 -24 0 -7 9 -12 13 -12 7z"/>
<path d="M6821 10033 c2 -24 2 -25 6 -5 2 12 8 22 13 22 5 0 11 -10 13 -22 l4
-23 2 23 c0 12 5 22 10 22 5 0 12 -10 14 -22 4 -20 4 -19 6 5 1 25 -2 27 -34
27 -32 0 -35 -2 -34 -27z"/>
<path d="M6908 10045 c5 -11 11 -27 14 -35 3 -9 9 -1 16 20 10 29 9 32 -1 18
-12 -15 -14 -15 -25 0 -11 15 -11 14 -4 -3z"/>
<path d="M6961 10033 c2 -24 2 -25 6 -5 2 12 8 22 13 22 5 0 11 -10 13 -22 l4
-23 2 23 c0 12 5 22 10 22 5 0 12 -10 14 -22 4 -20 4 -19 6 5 1 25 -2 27 -34
27 -32 0 -35 -2 -34 -27z"/>
<path d="M7065 10050 c17 -7 17 -9 3 -9 -25 -1 -23 -31 2 -31 15 0 20 7 20 25
0 19 -5 25 -22 24 -22 0 -22 -1 -3 -9z"/>
<path d="M7265 10050 l20 -9 -20 -1 -20 -1 20 -8 20 -8 -20 -5 c-18 -5 -18 -6
3 -7 17 -1 22 4 22 24 0 19 -5 25 -22 24 -22 0 -22 -1 -3 -9z"/>
<path d="M7407 10053 c-16 -16 -6 -43 16 -42 21 0 21 1 2 9 -17 7 -17 9 -2 9
20 1 24 31 4 31 -8 0 -17 -3 -20 -7z"/>
<path d="M7462 10048 c2 -6 11 -13 19 -16 12 -3 12 -2 0 6 -11 8 -11 10 0 15
10 4 8 6 -4 6 -10 1 -17 -4 -15 -11z"/>
<path d="M7540 10050 c0 -5 7 -7 15 -4 8 4 15 8 15 10 0 2 -7 4 -15 4 -8 0
-15 -4 -15 -10z"/>
<path d="M7590 10035 c0 -18 5 -25 19 -25 20 0 31 17 24 38 -3 6 -13 12 -24
12 -14 0 -19 -7 -19 -25z m32 0 c0 -5 -5 -11 -11 -13 -6 -2 -11 4 -11 13 0 9
5 15 11 13 6 -2 11 -8 11 -13z"/>
<path d="M7651 10033 c2 -24 2 -25 6 -5 2 12 8 22 13 22 5 0 11 -10 13 -22 l4
-23 2 23 c0 12 5 22 10 22 5 0 12 -10 14 -22 4 -20 4 -19 6 5 1 25 -2 27 -34
27 -32 0 -35 -2 -34 -27z"/>
<path d="M7540 10020 c0 -6 7 -10 15 -10 8 0 15 2 15 4 0 2 -7 6 -15 10 -8 3
-15 1 -15 -4z"/>
<path d="M7468 10013 c7 -3 16 -2 19 1 4 3 -2 6 -13 5 -11 0 -14 -3 -6 -6z"/>
<path d="M1140 7580 c0 -5 5 -10 10 -10 6 0 10 5 10 10 0 6 -4 10 -10 10 -5 0
-10 -4 -10 -10z"/>
<path d="M1140 5050 c0 -5 5 -10 10 -10 6 0 10 5 10 10 0 6 -4 10 -10 10 -5 0
-10 -4 -10 -10z"/>
<path d="M1140 2520 c0 -5 5 -10 10 -10 6 0 10 5 10 10 0 6 -4 10 -10 10 -5 0
-10 -4 -10 -10z"/>
</g>
</svg>
